<svg xmlns="http://www.w3.org/2000/svg" viewBox="0 0 512 512" role="img" aria-labelledby="title desc">
  <title id="title">YUJI Yueji logo</title>
  <desc id="desc">A soft Y-shaped leaf and care drop mark for YUJI feminine care.</desc>
  <defs>
    <linearGradient id="yuji-bg" x1="72" y1="62" x2="438" y2="452" gradientUnits="userSpaceOnUse">
      <stop offset="0" stop-color="#6b3654" />
      <stop offset="0.52" stop-color="#8b4f69" />
      <stop offset="1" stop-color="#167a74" />
    </linearGradient>
    <linearGradient id="yuji-leaf" x1="150" y1="110" x2="346" y2="390" gradientUnits="userSpaceOnUse">
      <stop offset="0" stop-color="#fffaf7" />
      <stop offset="1" stop-color="#f3e7e1" />
    </linearGradient>
  </defs>
  <rect x="28" y="28" width="456" height="456" rx="108" fill="url(#yuji-bg)" />
  <path
    d="M118 142c74-14 131 12 170 78-75 31-145 5-170-78Z"
    fill="url(#yuji-leaf)"
  />
  <path
    d="M394 142c-74-14-131 12-170 78 75 31 145 5 170-78Z"
    fill="url(#yuji-leaf)"
    opacity="0.96"
  />
  <path
    d="M229 226c0-15 12-27 27-27s27 12 27 27v147c0 39-24 65-61 65h-22v-54h18c7 0 11-4 11-12V226Z"
    fill="url(#yuji-leaf)"
  />
  <path
    d="M256 290c-23-28-40-49-40-73 0-24 17-42 40-42s40 18 40 42c0 24-17 45-40 73Z"
    fill="#d97a65"
  />
  <path
    d="M156 128c47 1 86 18 119 54M356 128c-47 1-86 18-119 54"
    fill="none"
    stroke="#fffaf7"
    stroke-linecap="round"
    stroke-width="14"
    opacity="0.22"
  />
</svg>
